<?xml version="1.0" encoding="UTF-8" standalone="no"?>
<svg
   xmlns:dc="http://purl.org/dc/elements/1.1/"
   xmlns:cc="http://creativecommons.org/ns#"
   xmlns:rdf="http://www.w3.org/1999/02/22-rdf-syntax-ns#"
   xmlns:svg="http://www.w3.org/2000/svg"
   xmlns="http://www.w3.org/2000/svg"
   xmlns:sodipodi="http://sodipodi.sourceforge.net/DTD/sodipodi-0.dtd"
   xmlns:inkscape="http://www.inkscape.org/namespaces/inkscape"
   version="1.1"
   id="svg5021"
   xml:space="preserve"
   width="500"
   height="500"
   viewBox="0 0 500 500"
   sodipodi:docname="logo_final.svg"
   inkscape:version="1.0.1 (3bc2e813f5, 2020-09-07)"><metadata
     id="metadata5027"><rdf:RDF><cc:Work
         rdf:about=""><dc:format>image/svg+xml</dc:format><dc:type
           rdf:resource="http://purl.org/dc/dcmitype/StillImage" /><dc:title></dc:title></cc:Work></rdf:RDF></metadata><defs
     id="defs5025"><rect
       x="85.663506"
       y="305.33176"
       width="151.06635"
       height="0"
       id="rect878" /></defs><sodipodi:namedview
     pagecolor="#ffffff"
     bordercolor="#666666"
     borderopacity="1"
     objecttolerance="10"
     gridtolerance="10"
     guidetolerance="10"
     inkscape:pageopacity="0"
     inkscape:pageshadow="2"
     inkscape:window-width="2560"
     inkscape:window-height="1377"
     id="namedview5023"
     showgrid="false"
     inkscape:zoom="1.0241715"
     inkscape:cx="356.03611"
     inkscape:cy="229.76376"
     inkscape:window-x="-8"
     inkscape:window-y="-8"
     inkscape:window-maximized="1"
     inkscape:current-layer="g5031"
     inkscape:document-rotation="0"
     showguides="true"
     inkscape:guide-bbox="true" /><g
     id="g5029"
     inkscape:groupmode="layer"
     inkscape:label="ink_ext_XXXXXX"
     transform="matrix(1.3333333,0,0,-1.3333333,0,400)"><g
       id="g5031"
       transform="matrix(0.1,0,0,0.1,2.1968978,0)"><path
         d="m 2070.8486,869.66968 c 37.87,-4.98 119.56,-24.99 135.03,-105.34 2.04,-10.66 -4.95,-20.96 -15.61,-23 -10.67,-2.03 -20.96,4.95 -23,15.62 -10.21,53.01 -65.88,68.63 -96.42,73.23 v -38.15 c 10.63,-1.87 24.47,-6.22 37.22,-16.13 18.38,-14.26 34.31,-39.3 34.31,-83.17995 0,-0.84 -0.06,-3.03 -0.18,-6.53 -0.34,-10.84 -9.4,-19.34 -20.23,-19 -10.83,0.33 -19.34,9.39 -19,20.22 0.02,0.53 0.03,2.31 0.03,5.31 0,29.04 -8.79,44.23995 -18.92,52.10995 -4.33,3.36 -8.95,5.53 -13.23,6.91 V 413.25973 c 0,-32.36 -31.47,-59.68 -82.35,-77.71 -44.77,-15.86 -106.18,-25.66 -173.61,-25.66 -67.43,0 -128.84,9.8 -173.61,25.66 -50.89,18.03 -82.36,45.35 -82.36,77.71 v 498.80995 c 0,32.35 31.47,59.68 82.36,77.71 44.77,15.85002 106.18,25.66002 173.61,25.66002 67.43,0 128.84,-9.81 173.61,-25.66002 50.88,-18.03 82.35,-45.36 82.35,-77.71 z m -95.43,-497.04995 c 34.63,12.26 56.06,26.78 56.06,40.64 v 498.80995 c 0,13.85 -21.43,28.37 -56.06,40.63 -40.74,14.43 -97.47,23.36 -160.53,23.36 -63.06,0 -119.8,-8.93 -160.54,-23.36 -34.63,-12.26 -56.05,-26.78 -56.05,-40.63 V 413.25973 c 0,-13.86 21.42,-28.38 56.05,-40.64 40.74,-14.43 97.48,-23.35 160.54,-23.35 63.06,0 119.79,8.92 160.53,23.35"
         style="fill:#ffffff;fill-opacity:1;fill-rule:nonzero;stroke:none"
         id="path5035"
         inkscape:connector-curvature="0" /><path
         d="m 1833.7546,1337.7197 c -1.15,-0.26 -2.33,-0.41 -3.54,-0.45 l -0.39,-0.01 h -0.1 -0.39 -0.1 l -0.39,0.01 c -1.2,0.04 -2.38,0.19 -3.54,0.45 -0.85,0.13 -9.84,0.97 -42.54,-14.72 -10.07,-4.84 -18.04,-8.98 -24.3,-12.44 l 71.07,-47.75 71.07,47.75 c -6.27,3.46 -14.23,7.6 -24.31,12.44 -32.69,15.69 -41.69,14.85 -42.54,14.72 z m -225.76,75.82 c 24.18,0 43.77,-33.52 43.77,-74.86 0,-41.35 -19.59,-74.86 -43.77,-74.86 -24.17,0 -43.77,33.51 -43.77,74.86 0,41.34 19.6,74.86 43.77,74.86 z m 443.08,0 c -24.18,0 -43.77,-33.52 -43.77,-74.86 0,-41.35 19.59,-74.86 43.77,-74.86 24.17,0 43.76,33.51 43.76,74.86 0,41.34 -19.59,74.86 -43.76,74.86 z m -316.71,-71.69 c -4.5,48.26 -19.68,160.61 -63.99,172.18 -56.61,14.77 -132.0899,-64.82 -164.0799,-158.34 -32,-93.53 -115.69,-397.89002 -58.26,-519.32002 57.43,-121.41995 216.5899,-228.06995 259.2499,-256.78995 42.66,-28.71 59.89,-105.83 -29.53,-112.39 -89.43,-6.56 -155.0599,-11.49 -240.3799,42.66 -85.33,54.14 -214.949,139.46 -216.59,315.02995 -1.641,175.57002 36.094,372.47002 139.46,585.78002 103.38,213.3 197.7199,292.06 303.5599,323.24 105.83,31.18 165.73,27.9 165.73,27.9 0,0 59.9,3.28 165.73,-27.9 105.84,-31.18 200.18,-109.94 303.55,-323.24 103.37,-213.31 141.11,-410.21 139.47,-585.78002 -1.64,-175.56995 -131.27,-260.88995 -216.59,-315.02995 -85.32,-54.15 -150.96,-49.22 -240.38,-42.66 -89.42,6.56 -72.2,83.68 -29.53,112.39 42.65,28.72 201.82,135.37 259.24,256.78995 57.43,121.43 -26.26,425.79002 -58.25,519.32002 -32,93.52 -107.47,173.11 -164.08,158.34 -44.32,-11.57 -59.49,-123.92 -64,-172.18 18.86,-11 25.12,-17.26 25.15,-17.29 7.68,-7.68 7.68,-20.16 0,-27.84 -1.32,-1.32 -2.78,-2.41 -4.33,-3.28 l -104.7,-70.33 c -0.8,-0.56 -1.65,-1.07 -2.52,-1.5 l -0.05,-0.03 -0.4,-0.19 -0.03,-0.01 -0.42,-0.19 -0.01,-0.01 -0.05,-0.02 c -2.34,-1.01 -4.81,-1.54 -7.27,-1.61 v 0 h -0.12 -0.35 -0.12 -0.35 -0.13 v 0 c -2.46,0.07 -4.92,0.6 -7.26,1.61 l -0.05,0.02 -0.02,0.01 -0.41,0.19 -0.04,0.01 -0.39,0.19 -0.05,0.03 c -0.87,0.43 -1.72,0.94 -2.53,1.5 l -104.7,70.33 c -1.55,0.87 -3.01,1.96 -4.32,3.28 -7.69,7.68 -7.69,20.16 0,27.84 0.02,0.03 6.29,6.29 25.14,17.29"
         style="fill:#ffffff;fill-opacity:1;fill-rule:evenodd;stroke:none"
         id="path5037"
         inkscape:connector-curvature="0" /><path
         d="m 1720.2986,860.46968 -0.2,0.04 -1.86,0.35 -0.35,0.06 c -2.02,0.39 -4,0.79 -5.96,1.2 l -1.97,0.42 -0.04,0.01 -1.99,0.44 -0.11,0.02 -1.86,0.42 -0.26,0.06 -1.68,0.39 -1.79,0.43 -0.2,0.06 -1.35,0.33 -0.72,0.18 -1.21,0.31 -0.6,0.16 -1.28,0.33 -0.35,0.1 -0.95,0.25 -0.37,0.1 -1.01,0.28 -1.06,0.3 -0.2,0.06 -1.19,0.34 -0.57,0.16 -1.3,0.39 -0.42,0.13 -1.41,0.43 -1.36,0.42 -0.44,0.14 -0.15,0.05 -1.61,0.53 -0.04,0.01 -1.6,0.54 -0.1,0.03 -1.48,0.52 -0.21,0.07 -0.33,0.12 c -2.62,0.93 -5.1,1.9 -7.45,2.88 l -0.33,0.14 c -16.84,7.11 -26.6,15.58 -26.6,24.67 0,8.22 8,15.94 22,22.61 2.58,1.18 7.06,-0.49 3.75,-5.28 v -0.01 c -3.98,-4.74 -6.64,-10.3 -4.52,-15.67 2.38,-6.05 11.46,-11.11 22.02,-15.04 30.9,9.6 76.31,15.66 126.94,15.66 49.65,0 94.27,-5.83 125.11,-15.1 9.94,3.85 18.3,8.72 20.57,14.48 2.11,5.37 -0.55,10.93 -4.52,15.67 v 0.01 c -3.32,4.79 1.16,6.46 3.75,5.28 14,-6.67 22,-14.39 22,-22.61 0,-10.4 -12.81,-20 -34.37,-27.68 l -0.26,-0.1 -0.29,-0.1 -1.44,-0.5 -1.75,-0.59 h -0.01 l -1.63,-0.54 -0.17,-0.05 -1.82,-0.57 -0.02,-0.01 -1.35,-0.41 -0.52,-0.16 -1.21,-0.36 -0.25,-0.07 -1.29,-0.37 -0.4,-0.12 -1.18,-0.33 -1,-0.27 -0.84,-0.23 -1.11,-0.3 -0.54,-0.14 -0.56,-0.15 -0.48,-0.12 -1.39,-0.36 -1.68,-0.41 -0.21,-0.05 -1.89,-0.46 -0.02,-0.01 -1.94,-0.45 -1.57,-0.35 -0.4,-0.09 -0.37,-0.09 -1.62,-0.35 -0.57,-0.13 -1.45,-0.3 -0.27,-0.06 -1.68,-0.34 -0.14,-0.03 c -1.3,-0.27 -2.61,-0.53 -3.94,-0.78 l -0.45,-0.08 -1.71,-0.32 -0.42,-0.08 c -26.92,-4.95 -59.39,-7.84 -94.34,-7.84 -35.06,0 -67.62,2.91 -94.59,7.88"
         style="fill:#d18952;fill-opacity:1;fill-rule:evenodd;stroke:none"
         id="path5039"
         inkscape:connector-curvature="0" /><path
         d="m 1811.7786,885.22968 v 0 c 10.84,0 19.69,-8.86 19.69,-19.69 V 666.93973 c 0,-10.83 -8.85,-19.69 -19.69,-19.69 v 0 c -10.83,0 -19.69,8.86 -19.69,19.69 v 198.59995 c 0,10.83 8.86,19.69 19.69,19.69"
         style="fill:#d18952;fill-opacity:1;fill-rule:evenodd;stroke:none"
         id="path5041"
         inkscape:connector-curvature="0" /><path
         d="m 1736.9686,885.22968 h 0.01 c 10.83,0 19.68,-8.86 19.68,-19.69 v -118.14 c 0,-10.83 -8.85,-19.68995 -19.68,-19.68995 h -0.01 c -10.83,0 -19.69,8.85995 -19.69,19.68995 v 118.14 c 0,10.83 8.86,19.69 19.69,19.69"
         style="fill:#d18952;fill-opacity:1;fill-rule:evenodd;stroke:none"
         id="path5043"
         inkscape:connector-curvature="0" /><path
         d="m 1931.4086,790.84968 v 0 c 10.83,0 19.69,-8.86 19.69,-19.69 v -55.84995 c 0,-10.83 -8.86,-19.69 -19.69,-19.69 v 0 c -10.84,0 -19.69,8.86 -19.69,19.69 v 55.84995 c 0,10.83 8.85,19.69 19.69,19.69"
         style="fill:#d18952;fill-opacity:1;fill-rule:evenodd;stroke:none"
         id="path5045"
         inkscape:connector-curvature="0" /></g><g
       inkscape:groupmode="layer"
       id="layer1"
       inkscape:label="Title"><text
         xml:space="preserve"
         id="text876"
         style="font-style:normal;font-weight:normal;font-size:30px;line-height:1.25;font-family:sans-serif;white-space:pre;shape-inside:url(#rect878);fill:#000000;fill-opacity:1;stroke:none;" /></g></g></svg>
